<svg width="40" height="40" viewBox="0 0 40 40" fill="none" xmlns="http://www.w3.org/2000/svg">
<g clip-path="url(#clip0_15_198)">
<path d="M4.02 28.27C2.73 25.8 2 22.98 2 20C2 17.13 2.68 14.41 3.88 12L2.16 10.96C0.78 13.67 0 16.75 0 20C0 23.31 0.8 26.43 2.23 29.18L4.02 28.27Z" fill="#F6AD01"/>
<path d="M32.15 33.27C28.95 36.21 24.68 38 20 38C13.05 38 7.01997 34.05 4.00997 28.27L2.21997 29.18C5.54997 35.61 12.26 40 20 40C25.2 40 29.93 38.02 33.48 34.77L32.15 33.27Z" fill="#249A41"/>
<path d="M33.4901 34.77C37.4901 31.12 40.0001 25.85 40.0001 20C40.0001 14.14 37.4801 8.87002 33.4601 5.21002L32.0901 6.67002C35.7201 9.97002 38.0001 14.72 38.0001 20C38.0001 25.25 35.7401 29.98 32.1501 33.27L33.4901 34.77Z" fill="#3174F1"/>
<path d="M19.9999 2C24.6499 2 28.8899 3.77 32.0899 6.67L33.4599 5.21C29.9099 1.97 25.1899 0 19.9999 0C12.2099 0 5.45991 4.46 2.15991 10.96L3.87991 12C6.82991 6.08 12.9499 2 19.9999 2Z" fill="#E92D18"/>
</g>
<defs>
<clipPath id="clip0_15_198">
<rect width="40" height="40" fill="white"/>
</clipPath>
</defs>
</svg>
