<svg width="28" height="28" viewBox="0 0 28 28" fill="none" xmlns="http://www.w3.org/2000/svg">
<path d="M8 10C9.1 10 10 9.1 10 8C10 6.9 9.1 6 8 6C6.9 6 6 6.9 6 8C6 9.1 6.9 10 8 10ZM14 22C15.1 22 16 21.1 16 20C16 18.9 15.1 18 14 18C12.9 18 12 18.9 12 20C12 21.1 12.9 22 14 22ZM8 22C9.1 22 10 21.1 10 20C10 18.9 9.1 18 8 18C6.9 18 6 18.9 6 20C6 21.1 6.9 22 8 22ZM8 16C9.1 16 10 15.1 10 14C10 12.9 9.1 12 8 12C6.9 12 6 12.9 6 14C6 15.1 6.9 16 8 16ZM14 16C15.1 16 16 15.1 16 14C16 12.9 15.1 12 14 12C12.9 12 12 12.9 12 14C12 15.1 12.9 16 14 16ZM18 8C18 9.1 18.9 10 20 10C21.1 10 22 9.1 22 8C22 6.9 21.1 6 20 6C18.9 6 18 6.9 18 8ZM14 10C15.1 10 16 9.1 16 8C16 6.9 15.1 6 14 6C12.9 6 12 6.9 12 8C12 9.1 12.9 10 14 10ZM20 16C21.1 16 22 15.1 22 14C22 12.9 21.1 12 20 12C18.9 12 18 12.9 18 14C18 15.1 18.9 16 20 16ZM20 22C21.1 22 22 21.1 22 20C22 18.9 21.1 18 20 18C18.9 18 18 18.9 18 20C18 21.1 18.9 22 20 22Z" fill="white"/>
</svg>
