<svg width="25" height="25" viewBox="0 0 25 25" fill="none" xmlns="http://www.w3.org/2000/svg">
<path d="M18.75 17.7083V11.4583C18.75 8.26041 17.052 5.58332 14.0625 4.87499V4.16666C14.0625 3.30207 13.3645 2.60416 12.5 2.60416C11.6354 2.60416 10.9375 3.30207 10.9375 4.16666V4.87499C7.95829 5.58332 6.24996 8.24999 6.24996 11.4583V17.7083H4.16663V19.7917H20.8333V17.7083H18.75ZM16.6666 17.7083H8.33329V11.4583C8.33329 8.87499 9.90621 6.77082 12.5 6.77082C15.0937 6.77082 16.6666 8.87499 16.6666 11.4583V17.7083ZM12.5 22.9167C13.6458 22.9167 14.5833 21.9792 14.5833 20.8333H10.4166C10.4166 21.9792 11.3541 22.9167 12.5 22.9167Z" fill="#9E9E9E"/>
</svg>
